HIERARCHY
ROOT Hips
{
	OFFSET 0.000000 0.000000 0.000000
	CHANNELS 6 Xposition Yposition Zposition Zrotation Yrotation Xrotation 
	JOINT LHipJoint
	{
		OFFSET 0.000000 0.000000 0.000000
		CHANNELS 3 Zrotation Yrotation Xrotation
		JOINT LeftUpLeg
		{
			OFFSET 1.363060 -1.794630 0.839290
			CHANNELS 3 Zrotation Yrotation Xrotation
			JOINT LeftLeg
			{
				OFFSET 2.448110 -6.726130 0.000000
				CHANNELS 3 Zrotation Yrotation Xrotation
				JOINT LeftFoot
				{
					OFFSET 2.562200 -7.039590 0.000000
					CHANNELS 3 Zrotation Yrotation Xrotation
					JOINT LeftToeBase
					{
						OFFSET 0.157640 -0.433110 2.322550
						CHANNELS 3 Zrotation Yrotation Xrotation
						End Site
						{
							OFFSET 0.000000 0.000000 0.000000
						}
					}
				}
			}
		}
	}
	JOINT RHipJoint
	{
		OFFSET 0.000000 0.000000 0.000000
		CHANNELS 3 Zrotation Yrotation Xrotation
		JOINT RightUpLeg
		{
			OFFSET -1.305520 -1.794630 0.839290
			CHANNELS 3 Zrotation Yrotation Xrotation
			JOINT RightLeg
			{
				OFFSET -2.542530 -6.985550 0.000000
				CHANNELS 3 Zrotation Yrotation Xrotation
				JOINT RightFoot
				{
					OFFSET -2.568260 -7.056230 0.000000
					CHANNELS 3 Zrotation Yrotation Xrotation
					JOINT RightToeBase
					{
						OFFSET -0.164730 -0.452590 2.363150
						CHANNELS 3 Zrotation Yrotation Xrotation
						End Site
						{
							OFFSET 0.000000 0.000000 0.000000
						}
					}
				}
			}
		}
	}
}
MOTION
Frames: 19
Frame Time: 0.008333
4.712148 17.408214 1.565143 -173.512514 -88.205074 -167.411691 -11.688021 5.732132 2.472454 -8.366996 7.307985 0.005528 -1.062912 0.721326 11.459916 0.598185 0.948651 21.803646 0.276200 0.000000 -72.191601 8.111400 -1.965605 3.568139 16.482775 -2.734254 -36.340591 4.591572 0.752965 8.914401 0.544316 3.220045 -0.870006 -0.079900 -0.000000 -61.659700
4.468731 17.336051 1.525562 174.420625 -87.613393 -155.361623 -11.881850 5.900093 2.412438 -8.495789 7.578805 0.182196 -1.034109 0.832716 12.560352 0.648639 0.586251 22.420951 0.066200 -0.000000 -72.936900 7.943448 -1.875555 3.792138 15.965027 -1.319192 -36.454327 4.420989 0.724220 9.691549 0.446788 2.716650 -1.199373 -0.170001 0.000000 -58.346200
4.225689 17.260551 1.487934 169.048563 -87.229814 -149.964586 -11.990668 5.982214 2.347692 -8.478432 7.845238 0.164152 -0.970340 0.924337 13.959672 0.684451 0.091768 23.074871 -0.205900 -0.000000 -73.371599 7.835601 -1.859215 4.073811 15.393266 0.294949 -36.882207 4.182146 0.553541 11.453650 0.262395 2.005997 -2.102546 -0.268300 -0.000000 -53.937100
3.984177 17.183024 1.451864 166.884865 -86.942489 -147.763109 -12.052835 6.036279 2.279555 -8.337677 8.152676 -0.045913 -0.888784 1.014056 15.645658 0.722923 -0.509410 23.788457 -0.541500 -0.000000 -73.361200 7.777579 -1.844459 4.346139 14.819299 1.969988 -37.564211 3.886568 0.273256 14.179545 0.020491 1.243399 -3.568756 -0.329300 0.000000 -48.282000
3.745581 17.104894 1.416900 165.889434 -86.729905 -146.764375 -12.104520 6.074230 2.206348 -8.096294 8.504624 -0.396569 -0.791213 1.105380 17.589948 0.772863 -1.167384 24.595087 -0.924400 -0.000001 -72.840200 7.750083 -1.807730 4.553926 14.280267 3.521759 -38.386226 3.555356 -0.082132 17.692994 -0.248762 0.550071 -5.508341 -0.318500 0.000000 -41.513800
3.510975 17.028014 1.382788 165.114275 -86.594166 -146.056807 -12.161064 6.096282 2.123042 -7.766649 8.891289 -0.835966 -0.678952 1.198062 19.756924 0.839858 -1.818821 25.510419 -1.328600 -0.000000 -71.753701 7.749114 -1.741278 4.662967 13.815018 4.802738 -39.184567 3.216434 -0.467147 21.664588 -0.518489 -0.023560 -7.747624 -0.231300 0.000000 -34.135600
3.280981 16.954736 1.349703 164.314469 -86.542227 -145.407802 -12.228319 6.098530 2.024058 -7.349231 9.298444 -1.338159 -0.555497 1.290468 22.107026 0.927159 -2.394786 26.529067 -1.721100 -0.000000 -70.106600 7.772081 -1.651823 4.665435 13.464857 5.738905 -39.794108 2.899712 -0.835227 25.689897 -0.770503 -0.493763 -10.068128 -0.087800 -0.000000 -27.023200
3.055584 16.887543 1.317929 163.498278 -86.578300 -144.813888 -12.309307 6.076429 1.907786 -6.845838 9.708156 -1.906062 -0.426679 1.380427 24.601165 1.035185 -2.824870 27.621356 -2.061500 -0.000000 -67.935501 7.810161 -1.556263 4.572448 13.262030 6.316210 -40.102857 2.629467 -1.153036 29.415485 -0.996115 -0.896867 -12.288928 0.086201 0.000000 -21.054400
2.834251 16.828649 1.287445 162.675711 -86.701527 -144.259666 -12.405644 6.026590 1.778667 -6.268287 10.096677 -2.561910 -0.299406 1.466229 27.201360 1.161553 -3.043003 28.737744 -2.303700 -0.000000 -65.334500 7.849055 -1.472687 4.404255 13.220459 6.559391 -40.067753 2.419854 -1.403895 32.605237 -1.195329 -1.261212 -14.316959 0.273100 -0.000000 -16.716500
2.616400 16.779604 1.257927 161.756682 -86.904687 -143.632227 -12.517686 5.947407 1.643416 -5.639938 10.438587 -3.320503 -0.179922 1.547768 29.863055 1.302125 -2.993734 29.822968 -2.401400 -0.000000 -62.537600 7.873466 -1.413378 4.178710 13.333701 6.506447 -39.691128 2.275880 -1.583862 35.141616 -1.372735 -1.596551 -16.139904 0.464900 -0.000000 -14.015300
2.400716 16.741163 1.227894 159.381340 -87.141001 -141.536350 -12.670415 5.841272 1.524077 -5.044781 10.682127 -4.213140 -0.071322 1.624268 32.541278 1.452084 -2.623856 30.816110 -2.306099 -0.000000 -59.790500 7.851143 -1.387037 3.916534 13.533770 6.195009 -39.041819 2.191084 -1.693851 37.006435 -1.532393 -1.895467 -17.768367 0.656400 0.000000 -12.826900
2.187037 16.713784 1.197993 155.447071 -87.421577 -137.880881 -12.874909 5.697578 1.410712 -4.441792 10.855558 -5.216202 0.028331 1.697694 35.213206 1.602514 -1.986226 31.621453 -2.030900 -0.000000 -57.012901 7.756579 -1.410058 3.627799 13.841317 5.696379 -38.101883 2.164418 -1.740663 38.178379 -1.683996 -2.182898 -19.215243 0.847801 0.000000 -12.740200
1.973475 16.696728 1.165592 136.368071 -87.618349 -119.067738 -13.376923 5.379379 1.355307 -4.037157 10.816467 -6.316098 0.202050 1.696949 37.847052 1.747743 -1.058353 32.220127 -1.553800 -0.000001 -54.674700 7.349219 -1.670635 3.342515 14.027336 4.937558 -37.044793 2.203758 -1.777235 38.745769 -1.831968 -2.438842 -20.510326 1.031200 0.000000 -13.595699
1.759227 16.689247 1.130286 52.519264 -88.472970 -35.497239 -12.761319 4.496995 1.217145 -3.200085 10.292947 -7.361560 0.635310 1.427251 40.668306 1.825625 0.021389 32.521308 -0.922400 0.000001 -52.739000 7.783439 -2.421799 3.317887 14.556384 3.821317 -36.058292 2.463885 -2.116858 38.416848 -1.982880 -2.909122 -21.677213 1.202000 -0.000000 -15.002500
1.540117 16.692015 1.098791 4.679384 -89.286006 12.456270 -12.305486 5.053851 1.365704 -2.437515 9.564419 -9.358116 0.343629 1.864508 43.307260 1.973815 1.230493 32.339034 -0.252400 0.000000 -51.278800 8.295554 -1.635853 2.857054 15.621583 2.786693 -34.573396 2.437230 -1.709745 37.836219 -2.074865 -3.032157 -22.399687 1.367100 0.000000 -16.477500
1.322370 16.700049 1.056969 5.357529 -88.777808 11.722602 -12.296499 4.883773 1.355000 -2.264096 9.197554 -10.835649 0.408574 1.946849 45.595629 2.068780 2.514258 32.000444 0.490600 -0.000000 -50.235400 8.297223 -1.686892 2.665003 15.876219 2.093996 -33.180325 2.514641 -1.585974 36.987107 -2.170191 -3.221523 -23.064971 1.499600 0.000000 -17.860401
1.101942 16.714200 1.012071 7.059010 -88.235973 10.030470 -12.253768 4.700010 1.366591 -2.222975 8.723987 -12.388686 0.482665 2.020405 47.732803 2.138732 3.737494 31.333919 1.187100 -0.000000 -49.527200 8.315629 -1.753871 2.527115 16.047129 1.492034 -31.772214 2.592297 -1.445419 35.860792 -2.251319 -3.409333 -23.530911 1.609000 0.000000 -18.792700
0.878768 16.733451 0.964572 9.430236 -87.699158 7.732998 -12.189283 4.510464 1.397376 -2.318295 8.169275 -13.997880 0.563152 2.085141 49.695789 2.183249 4.841392 30.366261 1.788999 0.000000 -49.054600 8.348675 -1.827129 2.444106 16.118003 1.019839 -30.378211 2.658405 -1.293918 34.562121 -2.317230 -3.600774 -23.800026 1.693800 0.000001 -19.137601
0.652948 16.756988 0.915333 12.220123 -87.200286 5.078121 -12.114270 4.320035 1.442121 -2.537575 7.564800 -15.640966 0.645712 2.141350 51.464995 2.203954 5.795205 29.144402 2.271500 0.000001 -48.755600 8.392474 -1.900804 2.412248 16.089189 0.701459 -29.014995 2.704617 -1.137528 33.177646 -2.367668 -3.802712 -23.873024 1.753200 -0.000000 -18.926400
